<?xml version="1.0" ?><!DOCTYPE svg  PUBLIC '-//W3C//DTD SVG 1.1//EN'  'http://www.w3.org/Graphics/SVG/1.1/DTD/svg11.dtd'><svg height="100%" style="fill-rule:evenodd;clip-rule:evenodd;stroke-linejoin:round;stroke-miterlimit:1.41421;" version="1.1" viewBox="0 0 49 49" width="100%" xml:space="preserve" xmlns="http://www.w3.org/2000/svg" xmlns:serif="http://www.serif.com/" xmlns:xlink="http://www.w3.org/1999/xlink"><rect height="48" style="fill:none;" width="48" x="0.311" y="0.637"/><path d="M40.311,38.637c1.104,0 2,0.896 2,2c0,1.105 -0.896,2 -2,2c-6.302,0 -25.699,0 -32,0c-1.105,0 -2,-0.895 -2,-2c0,-1.104 0.895,-2 2,-2c6.301,0 25.698,0 32,0Zm0,-8c1.104,0 2,0.896 2,2c0,1.105 -0.896,2 -2,2c-6.302,0 -25.699,0 -32,0c-1.105,0 -2,-0.895 -2,-2c0,-1.104 0.895,-2 2,-2c6.301,0 25.698,0 32,0Zm0,-8c1.104,0 2,0.896 2,2c0,1.105 -0.896,2 -2,2c-6.302,0 -25.699,0 -32,0c-1.105,0 -2,-0.895 -2,-2c0,-1.104 0.895,-2 2,-2c6.301,0 25.698,0 32,0Zm0,-8c1.104,0 2,0.896 2,2c0,1.105 -0.896,2 -2,2c-6.302,0 -25.699,0 -32,0c-1.105,0 -2,-0.895 -2,-2c0,-1.104 0.895,-2 2,-2c6.301,0 25.698,0 32,0Zm0,-8c1.104,0 2,0.896 2,2c0,1.105 -0.896,2 -2,2c-6.302,0 -25.699,0 -32,0c-1.105,0 -2,-0.895 -2,-2c0,-1.104 0.895,-2 2,-2c6.301,0 25.698,0 32,0Z" style="fill:#f60056;"/></svg>